<?xml version="1.0" encoding="UTF-8"?>
<!DOCTYPE svg PUBLIC "-//W3C//DTD SVG 1.1//EN" "http://www.w3.org/Graphics/SVG/1.1/DTD/svg11.dtd">
<svg xmlns="http://www.w3.org/2000/svg" version="1.1" width="512px" height="512px" style="shape-rendering:geometricPrecision; text-rendering:geometricPrecision; image-rendering:optimizeQuality; fill-rule:evenodd; clip-rule:evenodd" xmlns:xlink="http://www.w3.org/1999/xlink">
<g><path style="opacity:0.989" fill="#54c0ec" d="M 398.5,105.5 C 372.332,105.35 362.332,92.6834 368.5,67.5C 374.687,57.6442 383.687,53.3109 395.5,54.5C 397.229,35.9378 407.396,25.9378 426,24.5C 444.604,25.9378 454.771,35.9378 456.5,54.5C 477.464,54.2962 487.297,64.6295 486,85.5C 483.5,96 477,102.5 466.5,105C 443.836,105.5 421.169,105.667 398.5,105.5 Z"/></g>
<g><path style="opacity:1" fill="#ef5d40" d="M 242.5,25.5 C 251.167,24.1667 259.833,24.1667 268.5,25.5C 266.143,25.3367 263.81,25.5034 261.5,26C 270,30.5 276.5,37 281,45.5C 291.225,66.0632 297.891,87.7299 301,110.5C 309.69,180.581 304.356,249.581 285,317.5C 275.395,318.82 265.562,319.487 255.5,319.5C 245.438,319.487 235.605,318.82 226,317.5C 206.751,249.59 201.417,180.59 210,110.5C 213.107,87.7375 219.774,66.0708 230,45.5C 234.5,37 241,30.5 249.5,26C 247.19,25.5034 244.857,25.3367 242.5,25.5 Z"/></g>
<g><path style="opacity:1" fill="#f1e7da" d="M 242.5,25.5 C 244.857,25.3367 247.19,25.5034 249.5,26C 241,30.5 234.5,37 230,45.5C 219.774,66.0708 213.107,87.7375 210,110.5C 201.417,180.59 206.751,249.59 226,317.5C 235.605,318.82 245.438,319.487 255.5,319.5C 265.562,319.487 275.395,318.82 285,317.5C 304.356,249.581 309.69,180.581 301,110.5C 297.891,87.7299 291.225,66.0632 281,45.5C 276.5,37 270,30.5 261.5,26C 263.81,25.5034 266.143,25.3367 268.5,25.5C 292.863,30.774 313.03,43.1074 329,62.5C 356.991,100.107 368.991,142.44 365,189.5C 362.77,216.85 356.436,243.183 346,268.5C 337.758,285.318 329.258,301.985 320.5,318.5C 319.957,318.56 319.624,318.893 319.5,319.5C 329.203,319.849 338.536,320.849 347.5,322.5C 340.517,332.145 333.184,341.478 325.5,350.5C 291.165,350.667 256.832,350.5 222.5,350C 218.456,349.144 214.789,347.478 211.5,345C 204.636,335.98 197.636,327.146 190.5,318.5C 189.32,315.46 187.653,312.794 185.5,310.5C 180.205,298.577 174.372,286.91 168,275.5C 148.022,230.322 141.689,183.322 149,134.5C 154.784,105.917 166.951,80.5837 185.5,58.5C 201.118,41.5285 220.118,30.5285 242.5,25.5 Z"/></g>
<g><path style="opacity:0.993" fill="#ef5d40" d="M 268.5,25.5 C 306.827,28.0074 340.16,42.0074 368.5,67.5C 362.332,92.6834 372.332,105.35 398.5,105.5C 415.842,138.07 420.342,172.403 412,208.5C 405.791,235.912 394.457,260.912 378,283.5C 368.303,296.021 358.469,308.354 348.5,320.5C 339.167,319.833 329.833,319.167 320.5,318.5C 329.258,301.985 337.758,285.318 346,268.5C 356.436,243.183 362.77,216.85 365,189.5C 368.991,142.44 356.991,100.107 329,62.5C 313.03,43.1074 292.863,30.774 268.5,25.5 Z"/></g>
<g><path style="opacity:1" fill="#da4f3c" d="M 242.5,25.5 C 220.118,30.5285 201.118,41.5285 185.5,58.5C 146.849,86.7925 126.849,125.126 125.5,173.5C 127.078,212.401 138.911,247.734 161,279.5C 168.704,290.266 176.871,300.6 185.5,310.5C 187.653,312.794 189.32,315.46 190.5,318.5C 181.167,319.167 171.833,319.833 162.5,320.5C 153.787,310.456 145.454,300.123 137.5,289.5C 130.855,279.335 124.355,269.002 118,258.5C 111.81,245.757 106.31,232.757 101.5,219.5C 83.2327,142.569 107.899,84.0686 175.5,44C 196.506,32.9988 218.839,26.8321 242.5,25.5 Z"/></g>
<g><path style="opacity:1" fill="#ee5d40" d="M 185.5,58.5 C 166.951,80.5837 154.784,105.917 149,134.5C 141.689,183.322 148.022,230.322 168,275.5C 174.372,286.91 180.205,298.577 185.5,310.5C 176.871,300.6 168.704,290.266 161,279.5C 138.911,247.734 127.078,212.401 125.5,173.5C 126.849,125.126 146.849,86.7925 185.5,58.5 Z"/></g>
<g><path style="opacity:0.995" fill="#54c0ec" d="M 101.5,219.5 C 106.31,232.757 111.81,245.757 118,258.5C 124.355,269.002 130.855,279.335 137.5,289.5C 134.545,291.94 131.211,293.773 127.5,295C 99.1667,295.667 70.8333,295.667 42.5,295C 24.7389,286.481 20.2389,273.315 29,255.5C 35.4939,247.167 43.9939,243.833 54.5,245.5C 57.3758,223.13 70.0424,213.296 92.5,216C 95.7385,216.622 98.7385,217.788 101.5,219.5 Z"/></g>
<g><path style="opacity:1" fill="#eea08b" d="M 320.5,318.5 C 329.833,319.167 339.167,319.833 348.5,320.5C 348.672,321.492 348.338,322.158 347.5,322.5C 338.536,320.849 329.203,319.849 319.5,319.5C 319.624,318.893 319.957,318.56 320.5,318.5 Z"/></g>
<g><path style="opacity:1" fill="#efd9c4" d="M 190.5,318.5 C 197.636,327.146 204.636,335.98 211.5,345C 214.789,347.478 218.456,349.144 222.5,350C 256.832,350.5 291.165,350.667 325.5,350.5C 323.251,354.754 320.585,358.754 317.5,362.5C 276.167,362.5 234.833,362.5 193.5,362.5C 183.142,348.482 172.809,334.482 162.5,320.5C 171.833,319.833 181.167,319.167 190.5,318.5 Z"/></g>
<g><path style="opacity:0.994" fill="#84828e" d="M 193.5,362.5 C 234.833,362.5 276.167,362.5 317.5,362.5C 325.161,361.663 328.661,364.996 328,372.5C 327.215,374.286 326.049,375.786 324.5,377C 320.848,377.499 317.182,377.665 313.5,377.5C 307.833,377.5 302.167,377.5 296.5,377.5C 285.5,377.5 274.5,377.5 263.5,377.5C 258.167,377.5 252.833,377.5 247.5,377.5C 236.5,377.5 225.5,377.5 214.5,377.5C 208.833,377.5 203.167,377.5 197.5,377.5C 193.818,377.665 190.152,377.499 186.5,377C 181.177,372.286 181.177,367.62 186.5,363C 188.81,362.503 191.143,362.337 193.5,362.5 Z"/></g>
<g><path style="opacity:0.964" fill="#76757e" d="M 197.5,377.5 C 203.167,377.5 208.833,377.5 214.5,377.5C 216.454,389.272 218.788,400.939 221.5,412.5C 215.833,412.5 210.167,412.5 204.5,412.5C 202.294,400.802 199.96,389.135 197.5,377.5 Z"/></g>
<g><path style="opacity:0.938" fill="#787780" d="M 247.5,377.5 C 252.833,377.5 258.167,377.5 263.5,377.5C 263.5,389.167 263.5,400.833 263.5,412.5C 258.167,412.5 252.833,412.5 247.5,412.5C 247.5,400.833 247.5,389.167 247.5,377.5 Z"/></g>
<g><path style="opacity:0.959" fill="#76757e" d="M 296.5,377.5 C 302.167,377.5 307.833,377.5 313.5,377.5C 311.04,389.135 308.706,400.802 306.5,412.5C 300.833,412.5 295.167,412.5 289.5,412.5C 292.212,400.939 294.546,389.272 296.5,377.5 Z"/></g>
<g><path style="opacity:0.99" fill="#ffb154" d="M 204.5,412.5 C 210.167,412.5 215.833,412.5 221.5,412.5C 230.167,412.5 238.833,412.5 247.5,412.5C 252.833,412.5 258.167,412.5 263.5,412.5C 272.167,412.5 280.833,412.5 289.5,412.5C 295.167,412.5 300.833,412.5 306.5,412.5C 316.055,411.542 319.555,415.542 317,424.5C 315.491,426.919 313.325,427.919 310.5,427.5C 280.5,427.5 250.5,427.5 220.5,427.5C 213.833,427.5 207.167,427.5 200.5,427.5C 193.892,426.715 191.392,423.048 193,416.5C 195.9,412.884 199.734,411.551 204.5,412.5 Z"/></g>
<g><path style="opacity:1" fill="#c1773d" d="M 200.5,427.5 C 207.167,427.5 213.833,427.5 220.5,427.5C 220.333,441.171 220.5,454.837 221,468.5C 222.14,472.307 224.64,474.807 228.5,476C 254.853,475.84 280.853,476.674 306.5,478.5C 303.908,482.471 300.241,484.971 295.5,486C 267.771,486.974 240.105,486.641 212.5,485C 206.912,482.414 203.079,478.247 201,472.5C 200.5,457.504 200.333,442.504 200.5,427.5 Z"/></g>
<g><path style="opacity:0.999" fill="#d78545" d="M 220.5,427.5 C 250.5,427.5 280.5,427.5 310.5,427.5C 310.667,442.504 310.5,457.504 310,472.5C 309.4,474.91 308.234,476.91 306.5,478.5C 280.853,476.674 254.853,475.84 228.5,476C 224.64,474.807 222.14,472.307 221,468.5C 220.5,454.837 220.333,441.171 220.5,427.5 Z"/></g>
</svg>
